# xmcd
#
# Track frame offsets: 
#        150
#        16980
#        25442
#        33017
#        43983
#        62768
#        74165
#        82347
#        95709
#        108098
#        122099
#        131482
#        150406
#        166280
#
# Disc length: 2362 seconds
#
# Revision: 0
# Processed by: cddbd v1.5.2PL0 Copyright (c) Steve Scherf et al.
# Submitted via: ExactAudioCopy v0.99pb5
#
DISCID=be09380e
DTITLE=Mioara Velicu - Hai, Catrina, si ne-arata!
DYEAR=2010
DGENRE=Populara
TTITLE0=Hai, Catrina, si ne-arata!
TTITLE1=Hai la joc, badita!
TTITLE2=Zi-i mai tare, lautare!
TTITLE3=Trompeta
TTITLE4=Hai la masa mea, straine!
TTITLE5=Zi-i, Gheorghita, zi-i cu foc!
TTITLE6=Aoleu, m-as marita!
TTITLE7=Bine canta cobza mea
TTITLE8=Padure cu brazi umbrosi
TTITLE9=Omule, te-as intreba
TTITLE10=Mi-o spus tata intr-o sara
TTITLE11=Cat necaz am strans pe lume
TTITLE12=Doamne, cand o fi sa mor...
TTITLE13=Douazeci de primaveri
EXTD=
EXTT0=
EXTT1=
EXTT2=
EXTT3=
EXTT4=
EXTT5=
EXTT6=
EXTT7=
EXTT8=
EXTT9=
EXTT10=
EXTT11=
EXTT12=
EXTT13=
PLAYORDER=
